<svg width="417" height="146" viewBox="0 0 417 146" fill="none" xmlns="http://www.w3.org/2000/svg">
<path d="M7.32 116V50.96H29.04V69.92L25.8 64.52C27.72 59.64 30.84 56 35.16 53.6C39.48 51.12 44.72 49.88 50.88 49.88V70.4C49.84 70.24 48.92 70.16 48.12 70.16C47.4 70.08 46.6 70.04 45.72 70.04C41.08 70.04 37.32 71.32 34.44 73.88C31.56 76.36 30.12 80.44 30.12 86.12V116H7.32ZM85.4831 117.08C80.2031 117.08 75.4431 116.04 71.2031 113.96C67.0431 111.88 63.7631 108.64 61.3631 104.24C59.0431 99.76 57.8831 94.12 57.8831 87.32V50.96H80.6831V83.6C80.6831 88.64 81.6031 92.24 83.4431 94.4C85.3631 96.56 88.0431 97.64 91.4831 97.64C93.7231 97.64 95.7631 97.12 97.6031 96.08C99.4431 95.04 100.923 93.4 102.043 91.16C103.163 88.84 103.723 85.88 103.723 82.28V50.96H126.523V116H104.803V97.64L109.003 102.8C106.763 107.6 103.523 111.2 99.2831 113.6C95.0431 115.92 90.4431 117.08 85.4831 117.08ZM135.209 116V50.96H156.929V69.44L152.729 64.04C155.209 59.32 158.609 55.8 162.929 53.48C167.249 51.08 172.129 49.88 177.569 49.88C182.609 49.88 187.169 50.92 191.249 53C195.329 55 198.529 58.12 200.849 62.36C203.249 66.6 204.449 72.08 204.449 78.8V116H181.649V82.52C181.649 77.88 180.689 74.52 178.769 72.44C176.929 70.28 174.329 69.2 170.969 69.2C168.569 69.2 166.369 69.76 164.369 70.88C162.369 71.92 160.809 73.56 159.689 75.8C158.569 78.04 158.009 80.96 158.009 84.56V116H135.209ZM252.484 117.08C246.644 117.08 241.764 115.88 237.844 113.48C234.004 111.08 231.124 107.4 229.204 102.44C227.284 97.48 226.324 91.12 226.324 83.36C226.324 75.76 227.324 69.48 229.324 64.52C231.404 59.56 234.404 55.88 238.324 53.48C242.244 51.08 246.964 49.88 252.484 49.88C258.404 49.88 263.764 51.24 268.564 53.96C273.444 56.68 277.284 60.56 280.084 65.6C282.964 70.56 284.404 76.48 284.404 83.36C284.404 90.32 282.964 96.32 280.084 101.36C277.284 106.32 273.444 110.2 268.564 113C263.764 115.72 258.404 117.08 252.484 117.08ZM211.564 116V26.96H234.364V61.88L233.164 83.36L233.284 104.84V116H211.564ZM247.684 98.96C250.244 98.96 252.524 98.36 254.524 97.16C256.604 95.96 258.244 94.2 259.444 91.88C260.724 89.48 261.364 86.64 261.364 83.36C261.364 80.08 260.724 77.32 259.444 75.08C258.244 72.76 256.604 71 254.524 69.8C252.524 68.6 250.244 68 247.684 68C245.124 68 242.804 68.6 240.724 69.8C238.724 71 237.084 72.76 235.804 75.08C234.604 77.32 234.004 80.08 234.004 83.36C234.004 86.64 234.604 89.48 235.804 91.88C237.084 94.2 238.724 95.96 240.724 97.16C242.804 98.36 245.124 98.96 247.684 98.96ZM329.715 116V103.88L328.155 100.88V78.56C328.155 74.96 327.035 72.2 324.795 70.28C322.635 68.28 319.155 67.28 314.355 67.28C311.235 67.28 308.075 67.8 304.875 68.84C301.675 69.8 298.955 71.16 296.715 72.92L289.035 57.44C292.715 55.04 297.115 53.2 302.235 51.92C307.435 50.56 312.595 49.88 317.715 49.88C328.275 49.88 336.435 52.32 342.195 57.2C348.035 62 350.955 69.56 350.955 79.88V116H329.715ZM310.515 117.08C305.315 117.08 300.915 116.2 297.315 114.44C293.715 112.68 290.955 110.28 289.035 107.24C287.195 104.2 286.275 100.8 286.275 97.04C286.275 93.04 287.275 89.6 289.275 86.72C291.355 83.76 294.515 81.52 298.755 80C302.995 78.4 308.475 77.6 315.195 77.6H330.555V89.48H318.315C314.635 89.48 312.035 90.08 310.515 91.28C309.075 92.48 308.355 94.08 308.355 96.08C308.355 98.08 309.115 99.68 310.635 100.88C312.155 102.08 314.235 102.68 316.875 102.68C319.355 102.68 321.595 102.08 323.595 100.88C325.675 99.6 327.195 97.68 328.155 95.12L331.275 103.52C330.075 108 327.715 111.4 324.195 113.72C320.755 115.96 316.195 117.08 310.515 117.08ZM358.147 116V50.96H379.867V69.92L376.627 64.52C378.547 59.64 381.667 56 385.987 53.6C390.307 51.12 395.547 49.88 401.707 49.88V70.4C400.667 70.24 399.747 70.16 398.947 70.16C398.227 70.08 397.427 70.04 396.547 70.04C391.907 70.04 388.147 71.32 385.267 73.88C382.387 76.36 380.947 80.44 380.947 86.12V116H358.147Z" fill="black"/>
<path d="M407.395 118.074C406.162 118.074 405.019 117.852 403.967 117.408C402.915 116.964 401.995 116.348 401.205 115.559C400.416 114.753 399.8 113.825 399.356 112.773C398.929 111.721 398.715 110.586 398.715 109.37C398.715 108.153 398.937 107.019 399.381 105.967C399.825 104.915 400.441 103.995 401.23 103.205C402.019 102.4 402.94 101.775 403.992 101.332C405.06 100.888 406.211 100.666 407.444 100.666C408.677 100.666 409.819 100.888 410.871 101.332C411.94 101.759 412.86 102.367 413.633 103.156C414.422 103.945 415.03 104.866 415.458 105.918C415.901 106.953 416.123 108.088 416.123 109.321C416.123 110.553 415.901 111.704 415.458 112.773C415.014 113.825 414.389 114.753 413.584 115.559C412.795 116.348 411.874 116.964 410.822 117.408C409.77 117.852 408.627 118.074 407.395 118.074ZM408.973 114.005L406.704 110.504H410.304L412.573 114.005H408.973ZM407.395 115.904C408.315 115.904 409.162 115.74 409.934 115.411C410.723 115.066 411.405 114.597 411.981 114.005C412.556 113.414 413 112.723 413.312 111.934C413.641 111.129 413.805 110.258 413.805 109.321C413.805 108.384 413.649 107.521 413.337 106.732C413.025 105.942 412.589 105.26 412.03 104.685C411.471 104.093 410.797 103.641 410.008 103.329C409.236 103 408.381 102.836 407.444 102.836C406.507 102.836 405.644 103 404.855 103.329C404.082 103.658 403.408 104.118 402.833 104.71C402.258 105.301 401.814 106 401.501 106.805C401.189 107.595 401.033 108.449 401.033 109.37C401.033 110.29 401.189 111.153 401.501 111.959C401.814 112.748 402.249 113.438 402.808 114.03C403.384 114.622 404.058 115.082 404.83 115.411C405.619 115.74 406.474 115.904 407.395 115.904ZM403.326 114.005V104.734H407.74C409.121 104.734 410.189 105.047 410.945 105.671C411.718 106.296 412.104 107.134 412.104 108.186C412.104 109.337 411.718 110.2 410.945 110.775C410.189 111.351 409.121 111.638 407.74 111.638H406.877V114.005H403.326ZM406.877 109.197H407.518C407.847 109.197 408.101 109.107 408.282 108.926C408.463 108.745 408.553 108.499 408.553 108.186C408.553 107.874 408.463 107.627 408.282 107.447C408.101 107.266 407.847 107.175 407.518 107.175H406.877V109.197Z" fill="black"/>
</svg>
