<svg width="495" height="146" viewBox="0 0 495 146" fill="none" xmlns="http://www.w3.org/2000/svg">
<path d="M84 116V50.36H109.8V70.16L105.6 64.52C107.6 59.4 110.8 55.56 115.2 53C119.6 50.44 124.88 49.16 131.04 49.16V73.16C129.84 73 128.76 72.88 127.8 72.8C126.92 72.72 126 72.68 125.04 72.68C120.96 72.68 117.6 73.76 114.96 75.92C112.4 78 111.12 81.64 111.12 86.84V116H84ZM163.687 117.2C158.487 117.2 153.767 116.16 149.527 114.08C145.367 111.92 142.087 108.6 139.687 104.12C137.287 99.56 136.087 93.72 136.087 86.6V50.36H163.207V81.92C163.207 86.56 163.967 89.8 165.487 91.64C167.007 93.48 169.087 94.4 171.727 94.4C173.327 94.4 174.807 94 176.167 93.2C177.607 92.32 178.767 90.92 179.647 89C180.527 87 180.967 84.4 180.967 81.2V50.36H208.087V116H182.287V97.04L187.447 102.2C185.127 107.32 181.807 111.12 177.487 113.6C173.247 116 168.647 117.2 163.687 117.2ZM214.116 116V50.36H239.916V69.56L234.756 64.04C237.316 59.08 240.756 55.36 245.076 52.88C249.476 50.4 254.356 49.16 259.716 49.16C264.756 49.16 269.316 50.2 273.396 52.28C277.476 54.28 280.676 57.44 282.996 61.76C285.396 66.08 286.596 71.68 286.596 78.56V116H259.476V83.24C259.476 79.16 258.756 76.28 257.316 74.6C255.876 72.84 253.916 71.96 251.436 71.96C249.596 71.96 247.876 72.4 246.276 73.28C244.756 74.08 243.516 75.44 242.556 77.36C241.676 79.28 241.236 81.88 241.236 85.16V116H214.116ZM334.973 117.2C328.973 117.2 324.133 116 320.453 113.6C316.773 111.2 314.093 107.48 312.413 102.44C310.813 97.4 310.013 90.96 310.013 83.12C310.013 75.36 310.893 69 312.653 64.04C314.413 59 317.133 55.28 320.813 52.88C324.573 50.4 329.293 49.16 334.973 49.16C340.733 49.16 346.013 50.52 350.813 53.24C355.613 55.96 359.453 59.88 362.333 65C365.213 70.04 366.653 76.08 366.653 83.12C366.653 90.16 365.213 96.24 362.333 101.36C359.453 106.4 355.613 110.32 350.813 113.12C346.013 115.84 340.733 117.2 334.973 117.2ZM291.173 116V26.96H318.293V59.12L317.093 83.12L316.973 107.12V116H291.173ZM328.493 96.08C330.493 96.08 332.293 95.6 333.893 94.64C335.493 93.68 336.773 92.24 337.733 90.32C338.693 88.32 339.173 85.92 339.173 83.12C339.173 80.24 338.693 77.88 337.733 76.04C336.773 74.12 335.493 72.68 333.893 71.72C332.293 70.76 330.493 70.28 328.493 70.28C326.493 70.28 324.693 70.76 323.093 71.72C321.493 72.68 320.213 74.12 319.253 76.04C318.293 77.88 317.813 80.24 317.813 83.12C317.813 85.92 318.293 88.32 319.253 90.32C320.213 92.24 321.493 93.68 323.093 94.64C324.693 95.6 326.493 96.08 328.493 96.08ZM409.676 116V104.36L407.756 101.24V79.16C407.756 75.96 406.756 73.52 404.756 71.84C402.836 70.16 399.676 69.32 395.276 69.32C392.316 69.32 389.316 69.8 386.276 70.76C383.236 71.64 380.636 72.88 378.476 74.48L369.836 56.6C373.676 54.2 378.276 52.36 383.636 51.08C388.996 49.8 394.236 49.16 399.356 49.16C410.636 49.16 419.356 51.68 425.516 56.72C431.756 61.76 434.876 69.76 434.876 80.72V116H409.676ZM391.076 117.2C385.716 117.2 381.236 116.28 377.636 114.44C374.036 112.6 371.316 110.16 369.476 107.12C367.636 104 366.716 100.56 366.716 96.8C366.716 92.56 367.796 88.96 369.956 86C372.116 83.04 375.396 80.8 379.796 79.28C384.276 77.76 389.916 77 396.716 77H410.396V90.08H401.036C398.156 90.08 396.036 90.56 394.676 91.52C393.396 92.4 392.756 93.76 392.756 95.6C392.756 97.12 393.316 98.4 394.436 99.44C395.636 100.4 397.236 100.88 399.236 100.88C401.076 100.88 402.756 100.4 404.276 99.44C405.876 98.4 407.036 96.8 407.756 94.64L411.236 102.68C410.196 107.56 407.996 111.2 404.636 113.6C401.276 116 396.756 117.2 391.076 117.2ZM439.397 116V50.36H465.197V70.16L460.997 64.52C462.997 59.4 466.197 55.56 470.597 53C474.997 50.44 480.277 49.16 486.437 49.16V73.16C485.237 73 484.157 72.88 483.197 72.8C482.317 72.72 481.397 72.68 480.437 72.68C476.357 72.68 472.997 73.76 470.357 75.92C467.797 78 466.517 81.64 466.517 86.84V116H439.397Z" fill="black"/>
<path d="M485.395 118.074C484.162 118.074 483.019 117.852 481.967 117.408C480.915 116.964 479.995 116.348 479.205 115.559C478.416 114.753 477.8 113.825 477.356 112.773C476.929 111.721 476.715 110.586 476.715 109.37C476.715 108.153 476.937 107.019 477.381 105.967C477.825 104.915 478.441 103.995 479.23 103.205C480.019 102.4 480.94 101.775 481.992 101.332C483.06 100.888 484.211 100.666 485.444 100.666C486.677 100.666 487.819 100.888 488.871 101.332C489.94 101.759 490.86 102.367 491.633 103.156C492.422 103.945 493.03 104.866 493.458 105.918C493.901 106.953 494.123 108.088 494.123 109.321C494.123 110.553 493.901 111.704 493.458 112.773C493.014 113.825 492.389 114.753 491.584 115.559C490.795 116.348 489.874 116.964 488.822 117.408C487.77 117.852 486.627 118.074 485.395 118.074ZM486.973 114.005L484.704 110.504H488.304L490.573 114.005H486.973ZM485.395 115.904C486.315 115.904 487.162 115.74 487.934 115.411C488.723 115.066 489.405 114.597 489.981 114.005C490.556 113.414 491 112.723 491.312 111.934C491.641 111.129 491.805 110.258 491.805 109.321C491.805 108.384 491.649 107.521 491.337 106.732C491.025 105.942 490.589 105.26 490.03 104.685C489.471 104.093 488.797 103.641 488.008 103.329C487.236 103 486.381 102.836 485.444 102.836C484.507 102.836 483.644 103 482.855 103.329C482.082 103.658 481.408 104.118 480.833 104.71C480.258 105.301 479.814 106 479.501 106.805C479.189 107.595 479.033 108.449 479.033 109.37C479.033 110.29 479.189 111.153 479.501 111.959C479.814 112.748 480.249 113.438 480.808 114.03C481.384 114.622 482.058 115.082 482.83 115.411C483.619 115.74 484.474 115.904 485.395 115.904ZM481.326 114.005V104.734H485.74C487.121 104.734 488.189 105.047 488.945 105.671C489.718 106.296 490.104 107.134 490.104 108.186C490.104 109.337 489.718 110.2 488.945 110.775C488.189 111.351 487.121 111.638 485.74 111.638H484.877V114.005H481.326ZM484.877 109.197H485.518C485.847 109.197 486.101 109.107 486.282 108.926C486.463 108.745 486.553 108.499 486.553 108.186C486.553 107.874 486.463 107.627 486.282 107.447C486.101 107.266 485.847 107.175 485.518 107.175H484.877V109.197Z" fill="black"/>
<circle opacity="0.85" cx="9" cy="41" r="9" fill="black"/>
<circle opacity="0.7" cx="9" cy="74" r="9" fill="black"/>
<circle opacity="0.66" cx="9" cy="107" r="9" fill="black"/>
<circle cx="42" cy="41" r="9" fill="black"/>
<circle opacity="0.25" cx="42" cy="74" r="9" fill="black"/>
<circle opacity="0.4" cx="42" cy="107" r="9" fill="black"/>
</svg>
